<?xml version="1.0" standalone="no"?>
<!DOCTYPE svg PUBLIC "-//W3C//DTD SVG 20010904//EN"
 "http://www.w3.org/TR/2001/REC-SVG-20010904/DTD/svg10.dtd">
<svg version="1.0" xmlns="http://www.w3.org/2000/svg"
 width="227.000000pt" height="227.000000pt" viewBox="0 0 227.000000 227.000000"
 preserveAspectRatio="xMidYMid meet">
<metadata>
Created by potrace 1.14, written by Peter Selinger 2001-2017
</metadata>
<g transform="translate(0.000000,227.000000) scale(0.100000,-0.100000)"
fill="#000000" stroke="none">
<path d="M291 1490 c3 -29 -1 -41 -11 -35 -6 4 -8 11 -5 16 4 5 2 9 -3 9 -5 0
-12 -10 -16 -22 -4 -18 -8 -20 -18 -10 -15 15 -32 16 -22 0 4 -6 3 -8 -4 -4
-17 10 -24 -11 -12 -36 11 -23 11 -23 -6 -3 -15 18 -16 18 -10 1 3 -10 1 -25
-5 -32 -9 -11 -8 -14 1 -14 10 0 10 -3 0 -16 -8 -8 -9 -14 -4 -13 21 4 32 -2
37 -21 3 -13 1 -18 -6 -13 -6 4 -8 0 -4 -9 3 -9 -2 -26 -10 -39 -9 -12 -11
-19 -5 -15 7 4 12 2 12 -4 0 -6 6 -8 13 -4 10 6 10 4 0 -7 -15 -15 -18 -33 -5
-25 5 3 9 -1 9 -9 0 -11 -5 -11 -19 -4 -15 8 -17 13 -7 25 7 8 7 14 1 14 -14
0 -23 -28 -11 -36 6 -3 8 -12 5 -20 -3 -7 0 -16 6 -20 7 -4 8 -3 4 4 -4 7 -2
12 4 12 7 0 9 -8 5 -21 -4 -13 -3 -19 2 -16 5 4 10 -1 10 -9 0 -10 -7 -8 -25
8 l-25 23 14 -25 c8 -13 21 -30 29 -37 12 -9 13 -14 3 -24 -14 -15 -18 -33 -5
-25 5 3 9 -1 9 -8 0 -8 -6 -12 -14 -9 -7 3 -13 1 -14 -3 0 -5 -2 -17 -4 -27
-2 -9 1 -15 6 -11 5 3 7 10 4 15 -4 5 -2 9 4 9 5 0 9 -13 9 -30 -1 -16 -5 -30
-10 -30 -5 0 -6 5 -3 10 3 6 2 10 -3 10 -6 0 -13 -7 -16 -16 -3 -8 -2 -13 2
-10 4 3 14 -4 21 -16 9 -15 10 -18 0 -12 -9 5 -11 1 -6 -15 4 -16 2 -21 -7
-18 -7 3 -13 -1 -13 -9 0 -7 4 -11 8 -8 10 6 41 -25 34 -36 -6 -9 56 -7 73 4
8 4 11 3 10 -5 -2 -6 3 -14 11 -17 8 -2 11 0 7 6 -3 6 -1 14 5 18 8 4 9 3 5
-4 -4 -7 -2 -12 4 -12 6 0 9 -4 5 -9 -3 -5 -1 -12 4 -16 6 -3 8 4 6 16 -3 16
0 20 13 17 15 -4 18 2 16 44 0 27 4 51 9 55 6 3 7 1 3 -5 -4 -7 -2 -12 4 -12
7 0 10 6 7 13 -2 6 -12 11 -21 11 -13 -2 -14 1 -5 12 8 10 16 11 30 4 15 -8
17 -7 13 4 -3 9 3 17 16 21 14 5 19 12 15 23 -5 14 -4 14 12 0 18 -15 48 -14
38 2 -3 5 4 15 15 23 11 7 17 17 12 21 -4 4 0 6 8 4 10 -2 14 4 12 20 -1 15 2
22 10 19 7 -2 12 -11 10 -20 -2 -12 2 -15 15 -11 10 3 14 2 8 -3 -12 -9 -13
-38 -2 -49 4 -4 2 -13 -4 -21 -8 -8 -8 -13 -1 -13 6 0 9 -12 7 -27 -2 -16 4
-37 13 -47 10 -11 11 -16 5 -12 -7 4 -13 2 -13 -3 0 -6 5 -12 10 -12 6 -1 16
-2 23 -3 6 -1 11 -9 9 -19 -3 -20 14 -23 21 -4 4 9 6 9 6 -1 1 -7 6 -10 13 -6
6 4 8 3 5 -3 -4 -6 0 -14 9 -17 9 -3 12 -2 9 4 -4 7 5 9 25 5 24 -4 30 -2 24
7 -5 10 -4 10 6 1 8 -8 20 -9 37 -2 16 6 22 6 18 -1 -7 -11 35 -7 54 4 5 4 8
-5 7 -19 -2 -13 1 -22 5 -19 5 3 9 13 9 22 0 14 2 13 13 -3 11 -14 16 -15 22
-5 5 9 4 11 -3 6 -7 -4 -12 -2 -12 3 0 16 19 13 37 -4 8 -8 19 -13 24 -9 14 8
0 26 -14 18 -7 -4 -8 -3 -4 2 5 5 19 9 32 9 20 1 22 -2 12 -14 -10 -12 -9 -12
10 -1 12 8 21 16 21 19 -2 28 4 31 23 10 17 -20 19 -21 10 -3 -13 27 -1 44 35
49 16 2 23 2 16 -1 -6 -3 -10 -10 -7 -14 3 -5 0 -12 -6 -16 -7 -4 -9 -3 -6 3
3 5 0 10 -8 10 -8 0 -11 -5 -8 -10 4 -6 1 -7 -8 -2 -8 5 -11 4 -6 -1 5 -5 14
-9 20 -9 7 -1 11 -6 10 -11 -1 -6 5 -11 12 -11 10 0 12 4 5 12 -7 9 -6 14 4
18 9 4 18 2 21 -4 4 -5 10 -7 14 -5 4 3 8 -1 8 -9 0 -12 -3 -12 -16 -2 -14 11
-14 10 -2 -5 7 -10 18 -15 24 -11 16 10 47 11 42 2 -3 -4 -2 -14 1 -23 5 -13
10 -11 32 9 19 18 29 21 39 14 6 -6 18 -7 24 -3 8 5 10 2 7 -8 -7 -16 25 -19
39 -3 5 4 3 5 -4 1 -6 -3 -14 -2 -17 2 -3 5 15 9 39 9 30 0 42 -4 38 -11 -4
-6 2 -4 12 4 17 14 18 13 12 -2 -3 -10 -1 -20 5 -24 7 -4 8 -3 4 4 -4 7 -3 12
3 12 6 0 8 8 5 18 -5 14 -4 14 4 3 14 -20 42 -23 35 -5 -4 10 0 12 13 7 12 -4
15 -3 10 6 -4 6 -4 10 1 9 4 -1 23 7 41 19 22 14 29 23 20 26 -7 3 -3 5 9 3
12 -1 26 -6 30 -10 5 -4 3 -7 -2 -6 -25 5 -28 -2 -5 -16 17 -11 19 -13 5 -9
-27 9 -41 13 -33 8 4 -2 6 -10 4 -16 -1 -7 -1 -9 1 -4 3 4 9 7 14 7 6 0 8 -4
5 -9 -3 -4 6 -7 20 -5 19 2 22 -1 15 -10 -7 -8 -6 -17 1 -26 8 -12 9 -12 4 3
-6 19 -7 19 57 22 26 2 47 -1 47 -6 0 -5 5 -9 11 -9 5 0 8 3 6 8 -3 4 8 7 24
7 22 1 28 -3 24 -13 -4 -12 -2 -12 8 -3 11 9 17 8 26 -2 6 -8 7 -18 3 -22 -4
-5 -1 -5 6 0 10 5 11 10 3 18 -19 19 -13 22 39 24 28 1 48 -3 45 -8 -4 -5 1
-6 9 -3 9 3 13 11 9 18 -3 6 3 3 15 -7 20 -19 21 -18 16 5 -5 20 -4 21 6 5 12
-18 30 -15 30 6 0 7 -4 6 -10 -3 -6 -9 -10 -10 -10 -3 0 6 14 21 30 33 17 12
28 25 25 30 -3 5 6 7 21 4 24 -4 25 -3 11 11 -21 20 -11 51 9 34 12 -10 13 -9
8 5 -3 9 -10 16 -15 16 -6 0 -4 6 3 14 7 8 16 12 19 10 3 -2 6 3 6 11 0 8 -4
12 -9 9 -7 -5 -10 3 -7 22 0 4 -5 11 -13 15 -18 12 22 7 42 -6 16 -9 -13 30
-38 51 -10 10 -10 13 3 18 11 4 14 2 9 -7 -4 -6 -3 -8 1 -4 5 4 10 14 11 23 2
11 -1 12 -11 4 -10 -8 -15 -8 -21 1 -4 8 -3 9 4 5 7 -4 12 -2 12 3 0 6 -6 11
-12 11 -9 0 -8 3 2 10 9 6 17 5 22 -3 4 -7 6 -2 5 11 -1 21 -17 32 -17 12 0
-5 -6 -10 -12 -10 -7 1 -2 10 12 22 14 12 18 19 8 15 -9 -3 -21 0 -27 7 -11
14 -5 26 13 26 6 0 4 -5 -4 -11 -12 -9 -12 -10 3 -5 10 3 21 6 23 6 2 0 4 5 4
11 0 5 -4 8 -9 4 -5 -3 -12 -1 -16 5 -4 6 -10 8 -15 5 -5 -3 -7 3 -5 15 2 11
0 22 -6 25 -5 4 -1 18 8 33 9 15 11 22 3 15 -10 -9 -16 -9 -26 2 -18 18 -18
31 0 16 11 -9 15 -8 20 4 4 11 2 14 -6 9 -8 -5 -9 -2 -4 11 5 14 4 15 -7 7
-10 -8 -16 -6 -27 11 -8 12 -13 26 -12 30 1 4 -3 7 -10 6 -7 -1 -25 4 -40 11
-22 10 -26 16 -16 27 9 11 8 13 -3 11 -8 -2 -13 3 -11 10 1 8 -2 11 -8 7 -8
-5 -8 -11 0 -20 6 -7 7 -15 3 -18 -15 -9 -116 2 -123 13 -5 8 -9 5 -13 -9 -4
-16 -10 -19 -28 -14 -22 5 -92 7 -147 4 -13 0 -20 -5 -17 -11 3 -6 -1 -7 -9
-4 -9 3 -14 9 -11 13 2 4 -3 8 -11 8 -11 0 -9 -6 8 -24 12 -12 17 -23 11 -23
-6 0 -16 7 -23 15 -7 8 -16 15 -21 15 -5 0 1 -11 12 -24 12 -14 27 -22 34 -20
7 3 16 1 20 -5 4 -7 0 -8 -10 -5 -10 4 -15 2 -13 -6 2 -7 -4 -15 -12 -17 -13
-4 -13 -3 0 6 14 10 7 16 -13 12 -5 -1 -6 2 -3 7 7 12 -38 54 -49 45 -4 -5 -5
-2 -1 5 4 7 11 10 16 7 5 -3 11 -1 14 4 7 11 -35 8 -55 -4 -12 -8 -12 -6 0 9
11 13 12 19 2 29 -10 9 -11 8 -6 -5 6 -15 2 -18 -22 -18 -16 0 -34 5 -41 12
-9 9 -15 9 -24 -1 -11 -10 -10 -11 5 -6 9 4 17 3 17 -2 0 -4 -21 -8 -47 -7
-27 0 -53 -3 -59 -8 -7 -5 -16 -2 -24 7 -8 9 -21 20 -31 25 -14 8 -16 6 -12
-11 4 -16 8 -18 14 -7 6 9 9 9 9 1 0 -24 -19 -22 -40 4 -18 23 -21 24 -16 7 4
-13 2 -21 -6 -21 -7 0 -22 -4 -33 -8 -16 -5 -17 -5 -5 4 12 8 11 10 -7 8 -12
0 -19 -5 -17 -9 3 -4 0 -8 -5 -8 -6 0 -10 -3 -8 -8 1 -4 -7 -19 -18 -32 -19
-25 -21 -25 -37 -8 -18 18 -15 21 24 21 10 0 15 4 12 8 -3 5 -9 7 -14 4 -4 -3
-11 1 -13 7 -4 10 -6 10 -6 1 -1 -7 -7 -13 -15 -13 -8 0 -16 -3 -19 -7 -2 -5
-2 -3 -1 4 3 12 -24 28 -40 24 -5 -1 -6 5 -3 13 4 9 2 18 -4 21 -5 4 -8 1 -7
-7 2 -9 -8 -13 -32 -11 -51 2 -50 1 -44 21 4 10 2 13 -3 7 -12 -15 -32 -13
-43 5 -7 12 -9 10 -8 -7 2 -14 8 -20 20 -18 10 2 18 0 18 -5 0 -10 -62 -6 -81
5 -9 6 -11 3 -6 -9 5 -12 3 -15 -6 -9 -6 4 -33 8 -59 8 -26 1 -51 5 -55 10 -5
4 -2 5 6 0 10 -5 12 -4 7 4 -10 16 -29 3 -22 -16 3 -8 2 -12 -2 -9 -5 3 -23
-4 -41 -15 -32 -20 -52 -18 -50 4 0 9 2 9 6 0 2 -7 9 -13 15 -13 7 0 6 5 -1
14 -6 7 -22 11 -36 8 -14 -2 -25 0 -25 5 0 4 -30 8 -67 8 -80 -1 -93 2 -87 20
3 7 1 16 -5 20 -7 4 -8 0 -4 -11 4 -12 3 -15 -5 -10 -7 4 -10 2 -7 -6 4 -9 -2
-14 -14 -14 -15 0 -17 3 -9 13 7 9 7 13 0 13 -6 0 -14 -4 -17 -10 -3 -5 -11
-10 -16 -10 -6 0 -8 4 -5 8 2 4 0 14 -5 22 -9 13 -10 13 -8 0z m283 -76 c3 -8
2 -12 -4 -9 -6 3 -10 10 -10 16 0 14 7 11 14 -7z m-367 -54 c1 -11 -2 -20 -5
-20 -4 0 -8 9 -9 20 -1 11 2 20 5 20 4 0 8 -9 9 -20z m1396 -5 c-3 -9 -8 -14
-10 -11 -3 3 -2 9 2 15 9 16 15 13 8 -4z m-16 -49 c-3 -8 -1 -16 6 -19 7 -2 5
-6 -4 -9 -11 -4 -15 1 -15 18 0 13 4 24 9 24 5 0 7 -6 4 -14z m-1157 -12 c0
-8 -19 -13 -24 -6 -3 5 1 9 9 9 8 0 15 -2 15 -3z m10 -19 c-8 -9 -8 -15 -2
-15 6 0 13 4 16 9 6 10 56 12 56 2 0 -3 -7 -14 -14 -24 -12 -15 -14 -16 -20
-2 -3 8 -11 15 -17 15 -8 0 -7 -6 2 -17 13 -16 12 -17 -3 -5 -9 8 -21 11 -27
8 -10 -7 -9 8 4 37 4 10 10 16 13 13 3 -3 -1 -12 -8 -21z m418 -13 c-9 -10 -6
-12 16 -8 22 4 25 2 17 -8 -6 -8 -9 -22 -5 -32 5 -16 4 -16 -5 -4 -6 8 -11 11
-11 7 0 -4 -8 -3 -18 2 -13 7 -23 6 -32 -2 -12 -10 -12 -9 -1 5 7 10 18 15 24
11 6 -4 8 0 4 10 -3 9 -2 19 3 22 5 3 7 13 4 23 -5 14 -4 14 4 2 8 -10 8 -18
0 -28z m-448 -4 c0 -6 -6 -5 -15 2 -8 7 -15 14 -15 16 0 2 7 1 15 -2 8 -4 15
-11 15 -16z m145 -19 c-4 -35 -2 -39 11 -29 8 7 17 10 21 6 3 -3 1 -6 -7 -6
-10 0 -10 -3 0 -15 9 -10 9 -15 1 -15 -6 0 -11 5 -11 11 0 8 -4 8 -14 -1 -11
-8 -20 -9 -33 -1 -11 6 -13 11 -5 11 7 0 11 4 7 10 -3 5 -13 7 -23 4 -14 -5
-15 -4 -2 5 8 6 11 11 6 11 -5 0 -3 7 4 15 7 8 16 12 21 9 5 -3 12 2 15 10 10
27 13 18 9 -25z m267 9 c-6 -6 -12 -6 -17 3 -5 8 -4 10 3 5 7 -4 12 0 13 11 0
12 2 13 6 5 3 -8 1 -18 -5 -24z m522 20 c-5 -8 -2 -9 9 -5 10 3 17 2 17 -4 0
-6 6 -7 13 -3 8 5 8 2 -2 -9 -15 -19 -1 -23 17 -5 7 7 12 9 12 6 0 -14 -59
-48 -65 -38 -4 6 -3 10 2 9 21 -4 21 3 3 21 -22 22 -26 40 -9 40 5 0 7 -5 3
-12z m526 0 c0 -9 4 -8 10 2 5 8 10 10 10 5 0 -6 -6 -17 -12 -24 -11 -11 -9
-12 10 -6 l23 7 -23 -24 c-13 -13 -25 -19 -27 -14 -2 4 -8 2 -13 -5 -6 -10 -7
-6 -3 11 6 24 5 24 -9 6 -9 -11 -18 -17 -22 -14 -3 3 5 16 18 28 21 21 21 22
3 16 -20 -6 -20 -6 -1 9 24 18 36 19 36 3z m-1650 -18 c0 -5 -5 -10 -11 -10
-5 0 -7 5 -4 10 3 6 8 10 11 10 2 0 4 -4 4 -10z m1364 2 c3 -5 -1 -9 -9 -9 -8
0 -12 4 -9 9 3 4 7 8 9 8 2 0 6 -4 9 -8z m-257 -34 c-3 -7 -5 -2 -5 12 0 14 2
19 5 13 2 -7 2 -19 0 -25z m66 -29 c-8 -8 -13 -7 -18 2 -5 8 -4 10 3 5 7 -4
12 -2 12 5 0 7 3 9 7 6 4 -4 2 -12 -4 -18z m-512 -6 c13 -16 12 -17 -3 -4 -10
7 -18 15 -18 17 0 8 8 3 21 -13z m721 -5 c-7 -7 -12 -8 -12 -2 0 14 12 26 19
19 2 -3 -1 -11 -7 -17z m308 16 c0 -8 -19 -13 -24 -6 -3 5 1 9 9 9 8 0 15 -2
15 -3z m-1340 -28 c0 -2 -9 -6 -20 -9 -11 -3 -18 -1 -14 4 5 9 34 13 34 5z
m1020 -16 c0 -5 -4 -10 -10 -10 -5 0 -10 5 -10 10 0 6 5 10 10 10 6 0 10 -4
10 -10z m-1025 -10 c-3 -5 -12 -10 -18 -10 -7 0 -6 4 3 10 19 12 23 12 15 0z
m1045 -15 c-7 -9 -15 -13 -19 -10 -3 3 1 10 9 15 21 14 24 12 10 -5z m-1020
-31 c0 -8 -19 -13 -24 -6 -3 5 1 9 9 9 8 0 15 -2 15 -3z m1012 -36 c-7 -7 -12
-8 -12 -2 0 14 12 26 19 19 2 -3 -1 -11 -7 -17z m491 8 c4 -10 1 -13 -8 -9 -8
3 -12 9 -9 14 7 12 11 11 17 -5z m-1193 -12 c0 -8 -19 -13 -24 -6 -3 5 1 9 9
9 8 0 15 -2 15 -3z m477 0 c-3 -3 -12 -4 -19 -1 -8 3 -5 6 6 6 11 1 17 -2 13
-5z m464 -29 c1 6 1 13 0 17 0 4 6 5 15 1 8 -3 13 -12 10 -20 -3 -8 -1 -11 4
-8 6 3 10 12 10 20 0 19 17 28 26 14 5 -8 3 -9 -6 -4 -10 6 -12 3 -8 -13 4
-12 1 -20 -4 -19 -6 1 -13 -4 -16 -12 -3 -9 0 -11 8 -6 9 6 11 4 5 -4 -5 -9
-10 -10 -18 -2 -7 7 -15 7 -26 -1 -13 -10 -14 -10 -3 2 16 19 16 35 -1 21 -8
-6 -18 -7 -22 -3 -5 4 -5 -2 -1 -13 7 -19 6 -19 -10 -3 -16 16 -11 44 7 33 5
-4 9 -1 9 4 0 6 -8 11 -17 11 -15 0 -16 2 -3 10 11 7 18 3 27 -13 7 -12 13
-17 14 -12z m-1022 -30 c0 -5 -4 -2 -10 7 -5 10 -17 15 -27 12 -13 -5 -14 -4
-3 4 7 5 10 16 6 23 -4 8 3 3 14 -11 11 -14 21 -29 20 -35z m15 44 c6 5 18 6
25 2 11 -7 11 -13 1 -27 -11 -18 -11 -18 -6 1 6 18 5 18 -7 3 -12 -15 -14 -15
-25 3 -7 10 -12 22 -11 26 0 5 3 2 6 -5 3 -9 9 -10 17 -3z m510 -23 c-6 -17
-4 -19 7 -9 10 8 19 9 29 1 12 -8 12 -9 -2 -4 -10 3 -20 1 -24 -5 -4 -7 -10
-6 -18 0 -7 6 -17 7 -21 3 -5 -4 -5 -1 -1 6 4 6 2 12 -3 12 -6 0 -11 5 -11 12
0 9 3 9 12 0 17 -17 33 -15 18 3 -11 13 -10 14 4 9 12 -4 15 -13 10 -28z m-54
13 c0 -5 -4 -7 -10 -4 -5 3 -10 1 -10 -6 0 -7 -3 -10 -6 -6 -8 7 4 27 17 27 5
0 9 -5 9 -11z m110 5 c0 -8 -19 -13 -24 -6 -3 5 1 9 9 9 8 0 15 -2 15 -3z
m214 -26 c-3 -4 -11 -5 -19 -1 -21 7 -19 12 4 10 11 0 18 -5 15 -9z m471 -7
c3 -5 2 -12 -3 -15 -5 -3 -9 1 -9 9 0 17 3 19 12 6z m-479 -23 c10 -13 12 -17
4 -10 -18 15 -34 16 -24 0 4 -7 3 -8 -4 -4 -6 4 -9 13 -5 21 7 19 6 19 29 -7z
m-1192 -13 c-10 -7 -24 -10 -32 -7 -11 4 -11 6 -1 13 7 4 17 5 21 3 4 -3 8 0
8 6 0 6 5 8 11 5 6 -5 4 -12 -7 -20z m1171 -23 c-3 -3 -11 0 -18 7 -9 10 -8
11 6 5 10 -3 15 -9 12 -12z m20 -12 c-3 -5 -12 -10 -18 -10 -7 0 -6 4 3 10 19
12 23 12 15 0z m-20 -28 c-3 -3 -11 0 -18 7 -9 10 -8 11 6 5 10 -3 15 -9 12
-12z m-361 -81 c3 -5 -1 -11 -9 -14 -9 -4 -12 -1 -8 9 6 16 10 17 17 5z"/>
<path d="M476 1258 c3 -5 10 -6 15 -3 13 9 11 12 -6 12 -8 0 -12 -4 -9 -9z"/>
<path d="M865 1239 c-4 -6 -5 -12 -2 -15 2 -3 7 2 10 11 7 17 1 20 -8 4z"/>
<path d="M515 1239 c-3 -3 2 -12 10 -19 8 -7 15 -11 16 -9 6 30 5 36 -8 36 -7
0 -16 -4 -18 -8z"/>
<path d="M1855 1250 c6 -30 16 -40 12 -12 -2 12 -6 24 -10 28 -3 4 -4 -4 -2
-16z"/>
<path d="M705 1490 c-3 -6 1 -7 9 -4 18 7 21 14 7 14 -6 0 -13 -4 -16 -10z"/>
<path d="M777 1484 c4 -11 3 -15 -5 -10 -6 3 -13 2 -16 -3 -4 -5 2 -8 11 -7
20 3 28 21 14 31 -7 4 -8 0 -4 -11z"/>
<path d="M1599 1483 c-13 -16 -12 -17 4 -4 9 7 17 15 17 17 0 8 -8 3 -21 -13z"/>
<path d="M1816 1491 c-3 -5 2 -15 12 -22 15 -12 16 -12 5 2 -7 9 -10 19 -6 22
3 4 4 7 0 7 -3 0 -8 -4 -11 -9z"/>
<path d="M470 1481 c0 -7 -5 -9 -12 -5 -7 5 -8 3 -3 -5 5 -9 10 -10 18 -2 6 6
8 14 4 18 -4 3 -7 1 -7 -6z"/>
<path d="M654 1476 c-3 -8 -12 -12 -20 -9 -8 3 -14 3 -14 0 0 -16 31 -13 40 3
6 11 8 20 5 20 -3 0 -8 -6 -11 -14z"/>
<path d="M735 1479 c-4 -6 -5 -12 -2 -15 2 -3 7 2 10 11 7 17 1 20 -8 4z"/>
<path d="M810 1486 c0 -2 7 -9 15 -16 9 -7 15 -8 15 -2 0 5 -7 12 -15 16 -8 3
-15 4 -15 2z"/>
<path d="M1280 1472 c11 -22 31 -22 29 1 0 8 -2 8 -6 -1 -4 -10 -9 -9 -20 5
-13 17 -13 16 -3 -5z"/>
<path d="M1321 1474 c0 -11 3 -14 6 -6 3 7 2 16 -1 19 -3 4 -6 -2 -5 -13z"/>
<path d="M1633 1477 c0 -8 6 -14 14 -14 9 0 10 4 2 14 -6 7 -12 13 -14 13 -1
0 -2 -6 -2 -13z"/>
<path d="M1714 1481 c4 -6 16 -16 28 -22 15 -8 18 -8 14 0 -4 6 -16 16 -28 22
-15 8 -18 8 -14 0z"/>
<path d="M176 1472 c-3 -5 1 -9 9 -9 8 0 12 4 9 9 -3 4 -7 8 -9 8 -2 0 -6 -4
-9 -8z"/>
<path d="M556 1463 c-6 -14 -5 -15 5 -6 7 7 10 15 7 18 -3 3 -9 -2 -12 -12z"/>
<path d="M947 1469 c7 -7 15 -10 18 -7 3 3 -2 9 -12 12 -14 6 -15 5 -6 -5z"/>
<path d="M1015 1470 c-3 -5 -1 -10 4 -10 6 0 11 5 11 10 0 6 -2 10 -4 10 -3 0
-8 -4 -11 -10z"/>
<path d="M1771 1464 c0 -11 3 -14 6 -6 3 7 2 16 -1 19 -3 4 -6 -2 -5 -13z"/>
<path d="M1880 1470 c8 -5 20 -10 25 -10 6 0 3 5 -5 10 -8 5 -19 10 -25 10 -5
0 -3 -5 5 -10z"/>
<path d="M1959 1463 c-13 -16 -12 -17 4 -4 9 7 17 15 17 17 0 8 -8 3 -21 -13z"/>
<path d="M1095 1450 c-3 -5 -1 -10 4 -10 6 0 11 5 11 10 0 6 -2 10 -4 10 -3 0
-8 -4 -11 -10z"/>
<path d="M1981 1450 c-9 -5 -10 -10 -2 -14 6 -4 11 -3 11 3 0 6 7 8 15 5 8 -4
15 -4 15 -1 0 10 -27 15 -39 7z"/>
<path d="M610 1439 c0 -5 5 -7 10 -4 6 3 10 8 10 11 0 2 -4 4 -10 4 -5 0 -10
-5 -10 -11z"/>
<path d="M2016 1421 c-3 -5 1 -14 8 -20 10 -9 16 -9 21 -1 4 6 4 14 1 17 -3 4
-6 1 -6 -6 0 -7 -5 -9 -10 -6 -6 4 -8 11 -5 16 4 5 4 9 1 9 -3 0 -7 -4 -10 -9z"/>
<path d="M1076 1398 c3 -5 10 -6 15 -3 13 9 11 12 -6 12 -8 0 -12 -4 -9 -9z"/>
<path d="M184 1311 c4 -5 1 -12 -4 -14 -6 -3 -5 -4 2 -3 15 3 23 26 8 26 -6 0
-9 -4 -6 -9z"/>
<path d="M2072 1304 c-7 -8 -8 -14 -3 -14 10 0 25 19 20 25 -2 1 -10 -3 -17
-11z"/>
<path d="M2075 1260 c3 -5 8 -10 11 -10 2 0 4 5 4 10 0 6 -5 10 -11 10 -5 0
-7 -4 -4 -10z"/>
<path d="M186 1059 c-11 -11 -15 -19 -9 -19 12 0 38 28 32 34 -2 2 -13 -5 -23
-15z"/>
<path d="M537 1020 c-7 -11 -16 -17 -19 -14 -3 3 -9 0 -14 -7 -4 -8 -3 -10 4
-5 14 8 12 -20 -3 -44 -8 -13 -7 -13 8 -1 9 7 15 17 12 21 -3 5 1 15 9 23 8 8
12 18 8 21 -3 4 1 4 11 0 9 -3 17 -1 17 4 0 21 -19 22 -33 2z"/>
<path d="M545 990 c-3 -5 -2 -10 3 -10 5 0 8 -13 7 -28 -1 -19 2 -29 11 -29 8
0 14 4 14 9 0 4 -4 8 -9 8 -10 0 -9 19 2 36 7 12 0 24 -14 24 -4 0 -11 -4 -14
-10z"/>
<path d="M470 949 c0 -5 5 -7 10 -4 6 3 10 8 10 11 0 2 -4 4 -10 4 -5 0 -10
-5 -10 -11z"/>
<path d="M171 904 c0 -11 3 -14 6 -6 3 7 2 16 -1 19 -3 4 -6 -2 -5 -13z"/>
<path d="M567 901 c6 -7 9 -20 6 -27 -3 -8 -3 -14 0 -14 14 0 14 30 -1 41 -14
11 -15 11 -5 0z"/>
<path d="M383 873 c1 -17 5 -20 18 -13 9 5 20 6 24 2 5 -4 5 -1 1 6 -4 7 -12
9 -18 6 -6 -4 -14 0 -19 7 -6 10 -8 8 -6 -8z"/>
<path d="M2033 861 c-15 -12 -18 -22 -12 -32 7 -11 9 -11 9 3 0 9 10 24 22 32
12 9 18 16 13 16 -6 -1 -20 -9 -32 -19z"/>
<path d="M2055 850 c-3 -5 -1 -10 4 -10 6 0 11 5 11 10 0 6 -2 10 -4 10 -3 0
-8 -4 -11 -10z"/>
<path d="M590 844 c0 -1 6 -7 14 -13 10 -9 15 -8 19 2 3 8 -3 13 -14 13 -11 0
-19 -1 -19 -2z"/>
<path d="M1521 836 c-8 -10 -9 -16 -1 -21 6 -4 10 -3 9 2 -3 20 2 27 11 13 8
-13 10 -12 10 3 0 21 -13 22 -29 3z"/>
<path d="M185 830 c3 -5 8 -10 11 -10 2 0 4 5 4 10 0 6 -5 10 -11 10 -5 0 -7
-4 -4 -10z"/>
<path d="M1245 810 c-3 -5 -1 -10 4 -10 6 0 11 5 11 10 0 6 -2 10 -4 10 -3 0
-8 -4 -11 -10z"/>
<path d="M267 799 c7 -7 15 -10 18 -7 3 3 -2 9 -12 12 -14 6 -15 5 -6 -5z"/>
<path d="M657 799 c7 -7 15 -10 18 -7 3 3 -2 9 -12 12 -14 6 -15 5 -6 -5z"/>
<path d="M753 793 c0 -10 4 -10 16 -1 9 7 18 13 20 15 2 1 -5 1 -16 0 -11 0
-20 -7 -20 -14z"/>
<path d="M815 799 c-4 -6 -5 -12 -2 -15 2 -3 7 2 10 11 7 17 1 20 -8 4z"/>
<path d="M1366 793 c-6 -14 -5 -15 5 -6 7 7 10 15 7 18 -3 3 -9 -2 -12 -12z"/>
<path d="M1667 797 c-3 -8 1 -14 8 -14 7 0 11 6 8 14 -3 7 -6 13 -8 13 -2 0
-5 -6 -8 -13z"/>
<path d="M1701 793 c6 -7 17 -13 23 -12 7 0 6 2 -2 6 -6 2 -10 8 -8 12 3 4 -1
8 -9 8 -11 0 -12 -4 -4 -14z"/>
<path d="M1850 806 c0 -2 8 -10 18 -17 15 -13 16 -12 3 4 -13 16 -21 21 -21
13z"/>
<path d="M1895 800 c3 -5 8 -10 11 -10 2 0 4 5 4 10 0 6 -5 10 -11 10 -5 0 -7
-4 -4 -10z"/>
<path d="M718 793 c7 -3 16 -2 19 1 4 3 -2 6 -13 5 -11 0 -14 -3 -6 -6z"/>
</g>
</svg>
